<svg width="25" height="25" viewBox="0 0 25 25" fill="none" xmlns="http://www.w3.org/2000/svg">
<path d="M14.1195 15.3372C18.3145 15.3372 21.7274 11.8971 21.7274 7.66863C21.7274 3.44019 18.3145 0 14.1195 0C9.92458 0 6.51172 3.44014 6.51172 7.66858C6.51172 11.897 9.92458 15.3372 14.1195 15.3372ZM11.6749 10.0616C11.8962 9.72331 12.3499 9.62835 12.6882 9.84975C13.1811 10.1722 13.3671 10.2019 14.0175 10.1973C14.6524 10.1931 15.0208 9.71994 15.0944 9.28202C15.1302 9.06901 15.1439 8.54886 14.4992 8.32097C13.7431 8.05365 12.9693 7.74812 12.4309 7.32586C11.8925 6.9036 11.646 6.17464 11.7876 5.42358C11.9411 4.60936 12.509 3.96121 13.2699 3.73205C13.2768 3.73 13.2835 3.72835 13.2904 3.7263V3.44882C13.2904 3.04457 13.6181 2.71684 14.0224 2.71684C14.4266 2.71684 14.7544 3.04457 14.7544 3.44882V3.68018C15.2515 3.79886 15.5987 4.02631 15.7397 4.13167C16.0635 4.37376 16.1298 4.83242 15.8877 5.15625C15.6457 5.48009 15.187 5.54635 14.8632 5.30421C14.7132 5.19207 14.2986 4.95101 13.6921 5.13376C13.3378 5.24053 13.2459 5.59013 13.2262 5.6947C13.1875 5.9002 13.2309 6.09281 13.3344 6.17391C13.7075 6.46661 14.3793 6.72578 14.9871 6.94064C16.108 7.33684 16.7313 8.37528 16.5381 9.5247C16.4433 10.0887 16.1595 10.6119 15.7391 10.9981C15.4528 11.2613 15.1195 11.4488 14.7544 11.556V11.8883C14.7544 12.2926 14.4266 12.6203 14.0224 12.6203C13.6181 12.6203 13.2904 12.2926 13.2904 11.8883V11.629C12.8171 11.5716 12.4198 11.4236 11.8867 11.0748C11.5485 10.8535 11.4536 10.3999 11.6749 10.0616V10.0616Z" fill="#2D60FF"/>
<path d="M2.40101 17.7969H0.731986C0.327734 17.7969 0 18.1246 0 18.5289V24.2671C0 24.6714 0.327734 24.9991 0.731986 24.9991H2.40106V17.7969H2.40101Z" fill="#2D60FF"/>
<path d="M24.0388 17.7458C22.6668 16.3738 20.4344 16.3738 19.0625 17.7458L16.8698 19.9385L15.9711 20.8372C15.6079 21.2004 15.1152 21.4045 14.6015 21.4045H10.2314C9.83668 21.4045 9.49704 21.1012 9.47845 20.7069C9.45863 20.286 9.79403 19.9385 10.2106 19.9385H14.6526C15.5457 19.9385 16.3204 19.3026 16.4739 18.4228C16.5092 18.2208 16.5276 18.0131 16.5276 17.8011C16.5276 17.3961 16.1995 17.0675 15.7946 17.0675H13.3606C12.5652 17.0675 11.8013 16.7067 10.9926 16.3246C10.1443 15.9239 9.2672 15.5095 8.24158 15.4413C7.34456 15.3815 6.44549 15.4798 5.5692 15.7328C4.63094 16.0037 3.95649 16.8373 3.8747 17.7997C3.87158 17.7995 3.86841 17.7994 3.86523 17.7992V24.9967L16.4762 25.0001C17.3433 25.0001 18.1585 24.6624 18.7717 24.0493L24.0386 18.7824C24.325 18.4962 24.325 18.032 24.0388 17.7458V17.7458Z" fill="#2D60FF"/>
</svg>
