<svg width="26" height="26" viewBox="0 0 26 26" fill="none" xmlns="http://www.w3.org/2000/svg">
<g clip-path="url(#clip0_246_435)">
<path d="M22.9608 11.3209V10.9652C22.9608 9.33022 21.6306 8 19.9956 8H2.96522C1.33016 8.00005 0 9.33022 0 10.9652V11.3209H22.9608Z" fill="#B1B1B1"/>
<path d="M13.5651 20.8592C13.5651 19.3211 14.0598 17.8591 14.9731 16.6543H0V20.7905C0 22.4255 1.33016 23.7557 2.96522 23.7557H14.1911C13.7813 22.8581 13.5651 21.8754 13.5651 20.8592V20.8592ZM11.4804 19.9605H8.92125V18.437H11.4804V19.9605ZM3.41545 18.437H7.39781V19.9605H3.41545V18.437Z" fill="#B1B1B1"/>
<path d="M16.5547 15.1308C17.7165 14.3179 19.0967 13.88 20.5443 13.88C21.3822 13.88 22.1973 14.0271 22.9608 14.3083V12.8442H0V15.1308H16.5547Z" fill="#B1B1B1"/>
<path d="M25.9994 20.859C25.9994 17.8459 23.5567 15.4033 20.5436 15.4033C17.5305 15.4033 15.0879 17.8459 15.0879 20.859C15.0879 23.8721 17.5305 26.3147 20.5436 26.3147C23.5567 26.3147 25.9994 23.8721 25.9994 20.859ZM21.279 23.7736V24.3936H20.5173V24.3936V24.3936H19.7556V23.7782C19.2951 23.6222 18.9183 23.3478 18.5503 23.0788L19.4496 21.8491C19.944 22.2107 20.197 22.3844 20.5436 22.3844C20.7396 22.3844 20.8983 22.2911 20.9578 22.141C21.0299 21.9592 20.9281 21.7917 20.6855 21.6929C20.6855 21.6929 19.5967 21.3298 19.0933 20.8166C18.6709 20.386 18.5365 19.7792 18.671 19.202C18.8064 18.6208 19.1988 18.1663 19.7556 17.9394V17.3243H21.279V17.9139C21.6659 18.0213 21.9934 18.1801 22.1817 18.2824L21.4549 19.6212C20.973 19.3596 20.5297 19.2811 20.3571 19.3401C20.1897 19.3973 20.1642 19.5065 20.1546 19.5476C20.1411 19.6059 20.1338 19.6953 20.227 19.799C20.3166 19.8989 21.2598 20.282 21.2598 20.282C22.2776 20.6963 22.7566 21.7368 22.3741 22.7022C22.1754 23.2039 21.7754 23.5839 21.279 23.7736V23.7736Z" fill="#B1B1B1"/>
</g>
<defs>
<clipPath id="clip0_246_435">
<rect width="26" height="26" fill="white"/>
</clipPath>
</defs>
</svg>
